<?xml version="1.0" encoding="iso-8859-1"?>
<!-- Generator: Adobe Illustrator 19.0.0, SVG Export Plug-In . SVG Version: 6.00 Build 0)  -->
<svg version="1.1" id="Layer_1" xmlns="http://www.w3.org/2000/svg" xmlns:xlink="http://www.w3.org/1999/xlink" x="0px" y="0px"
	 viewBox="0 0 512 512" style="enable-background:new 0 0 512 512;" xml:space="preserve">
<path style="fill:#C4CAD9;" d="M256,512c-1.487,0-2.974-0.221-4.411-0.663c-63.753-19.617-118.398-58.346-158.026-112.001
	S32.989,282.064,32.989,215.362V79.978c0-4.922,2.415-9.531,6.462-12.334C103.372,23.391,178.254,0,256,0
	s152.628,23.391,216.549,67.644c4.047,2.802,6.462,7.411,6.462,12.334v135.383c0,66.702-20.946,130.32-60.574,183.975
	c-39.628,53.655-94.273,92.384-158.026,112.001C258.974,511.779,257.487,512,256,512z"/>
<path style="fill:#4DB5FF;" d="M256,444.153c-1.903,0-3.806-0.362-5.604-1.086c-93.19-37.53-153.404-126.91-153.404-227.707v-99.755
	c0-5.489,2.999-10.542,7.818-13.17C150.904,77.296,203.184,64.008,256,64.008s105.096,13.288,151.19,38.427
	c4.819,2.628,7.818,7.68,7.818,13.17v99.755c0,100.796-60.214,190.177-153.404,227.707C259.806,443.792,257.903,444.153,256,444.153
	z"/>
<path style="fill:#B8BFCC;" d="M260.411,511.337c63.753-19.617,118.398-58.346,158.026-112.001s60.574-117.273,60.574-183.975
	V79.978c0-4.922-2.415-9.531-6.462-12.334C408.628,23.391,333.746,0,256,0v512C257.487,512,258.974,511.779,260.411,511.337z"/>
<path style="fill:#DAE2F2;" d="M261.604,443.066c93.19-37.531,153.404-126.91,153.404-227.707v-99.755
	c0-5.489-2.999-10.542-7.818-13.17C361.096,77.296,308.816,64.008,256,64.008v380.144
	C257.903,444.153,259.806,443.792,261.604,443.066z"/>
<path style="fill:#E6EEFF;" d="M411.689,255.987H100.312c13.783,83.654,69.646,154.684,150.085,187.079
	c1.798,0.724,3.701,1.086,5.604,1.086c1.903,0,3.806-0.362,5.604-1.086C342.043,410.671,397.905,339.642,411.689,255.987z"/>
<path style="fill:#4D97FF;" d="M411.689,255.987H256v188.166c1.903,0,3.806-0.362,5.604-1.086
	C342.043,410.671,397.905,339.642,411.689,255.987z"/>
<g>
</g>
<g>
</g>
<g>
</g>
<g>
</g>
<g>
</g>
<g>
</g>
<g>
</g>
<g>
</g>
<g>
</g>
<g>
</g>
<g>
</g>
<g>
</g>
<g>
</g>
<g>
</g>
<g>
</g>
</svg>
